<svg xmlns="http://www.w3.org/2000/svg" version="1.1" xmlns:xlink="http://www.w3.org/1999/xlink" xmlns:svgjs="http://svgjs.dev/svgjs" width="1440" height="560" preserveAspectRatio="none" viewBox="0 0 1440 560"><g mask="url(&quot;#SvgjsMask1000&quot;)" fill="none"><rect width="1440" height="560" x="0" y="0" fill="#1e3266"></rect><path d="M1560 560L0 560 L0 360.84Q10.62 299.45, 72 310.07Q98.96 265.03, 144 292Q201.14 277.14, 216 334.28Q245.69 291.96, 288 321.65Q344.41 306.06, 360 362.47Q380.15 262.62, 480 282.77Q555.26 238.03, 600 313.3Q646.03 287.33, 672 333.35Q687.36 276.71, 744 292.06Q792.88 268.94, 816 317.82Q892.77 274.59, 936 351.35Q937.14 280.5, 1008 281.64Q1079.15 232.79, 1128 303.95Q1220.12 276.06, 1248 368.18Q1260.95 309.13, 1320 322.09Q1369.85 251.93, 1440 301.78Q1537.72 279.5, 1560 377.23z" fill="#182f5d"></path><path d="M1536 560L0 560 L0 437.55Q-3.33 362.22, 72 358.89Q129.76 296.65, 192 354.42Q286.22 328.64, 312 422.87Q320.65 359.52, 384 368.17Q411.48 323.65, 456 351.14Q531.85 306.99, 576 382.84Q633.44 368.28, 648 425.72Q676.69 334.41, 768 363.1Q847.94 323.04, 888 402.98Q953.7 348.69, 1008 414.39Q1057.42 391.81, 1080 441.24Q1081.7 370.94, 1152 372.65Q1181.18 329.83, 1224 359.01Q1319.86 334.87, 1344 430.72Q1357.38 372.1, 1416 385.47Q1468.82 318.29, 1536 371.11z" fill="#25467d"></path><path d="M1536 560L0 560 L0 453.31Q25.66 406.97, 72 432.62Q131.79 420.41, 144 480.21Q172.58 436.79, 216 465.38Q267.13 444.5, 288 495.63Q297.19 432.82, 360 442.01Q427.59 389.6, 480 457.19Q539.09 444.27, 552 503.36Q555.34 434.69, 624 438.03Q651.63 393.65, 696 421.28Q775.33 380.61, 816 459.93Q857.01 428.94, 888 469.95Q958.61 420.56, 1008 491.16Q1051.09 462.25, 1080 505.34Q1081.06 434.4, 1152 435.46Q1204.55 368.01, 1272 420.56Q1337.94 414.5, 1344 480.45Q1386.42 450.88, 1416 493.3Q1456.48 413.78, 1536 454.26z" fill="#356cb1"></path><path d="M1464 560L0 560 L0 536.45Q37.71 502.16, 72 539.87Q141.68 489.55, 192 559.22Q204.6 499.82, 264 512.41Q313.97 442.38, 384 492.34Q437.17 473.51, 456 526.68Q506.22 504.89, 528 555.11Q541.69 496.8, 600 510.49Q645.24 483.73, 672 528.96Q722.68 507.64, 744 558.32Q749.67 492, 816 497.67Q857.38 467.05, 888 508.42Q966.2 466.62, 1008 544.82Q1050.42 515.24, 1080 557.66Q1122.71 528.37, 1152 571.08Q1219.43 518.51, 1272 585.94Q1281.67 523.61, 1344 533.28Q1395.93 465.21, 1464 517.14z" fill="white"></path></g><defs><mask id="SvgjsMask1000"><rect width="1440" height="560" fill="#ffffff"></rect></mask></defs></svg>